<?xml version="1.0" standalone="no"?>
<!DOCTYPE svg PUBLIC "-//W3C//DTD SVG 20010904//EN"
 "http://www.w3.org/TR/2001/REC-SVG-20010904/DTD/svg10.dtd">
<svg version="1.0" xmlns="http://www.w3.org/2000/svg"
 width="512.000000pt" height="512.000000pt" viewBox="0 0 512.000000 512.000000"
 preserveAspectRatio="xMidYMid meet">
<metadata>
Created by potrace 1.14, written by Peter Selinger 2001-2017
</metadata>
<g transform="translate(0.000000,512.000000) scale(0.100000,-0.100000)"
fill="#000000" stroke="none">
<path d="M3911 3390 c-159 -24 -325 -164 -440 -373 -109 -199 -201 -535 -201
-738 l0 -53 -102 -99 c-96 -94 -157 -135 -178 -122 -18 11 -10 85 25 217 41
159 60 292 51 365 -16 139 -106 212 -272 221 -100 5 -174 -14 -238 -63 -26
-19 -48 -35 -51 -35 -2 0 -12 15 -21 33 -9 17 -32 49 -52 70 -47 48 -99 52
-138 10 -71 -77 -154 -281 -174 -431 -6 -48 -13 -101 -16 -118 -3 -23 -31 -58
-110 -137 -102 -101 -163 -145 -184 -132 -19 12 -10 85 31 247 45 182 56 329
30 401 -32 93 -120 146 -256 155 -100 6 -175 -14 -239 -63 -26 -19 -48 -35
-50 -35 -2 0 -16 20 -30 44 -58 99 -132 124 -188 64 -41 -44 -124 -218 -147
-309 -29 -115 -41 -245 -43 -464 -2 -222 6 -271 49 -305 35 -27 71 -21 163 25
71 36 120 83 120 117 0 11 -9 54 -19 96 -36 142 -37 167 -2 272 77 229 188
349 296 319 65 -18 68 -50 24 -247 -65 -292 -47 -471 54 -546 21 -16 43 -21
87 -21 53 0 73 7 195 69 96 49 146 81 169 108 18 21 36 38 39 38 4 0 7 -27 7
-61 0 -115 36 -189 91 -189 40 0 155 56 196 96 48 45 51 60 28 144 -32 114
-35 185 -13 263 28 101 95 231 148 287 52 55 101 74 155 59 65 -18 69 -57 24
-256 -40 -171 -46 -353 -16 -440 31 -89 105 -135 192 -119 20 4 91 34 158 68
99 49 133 72 178 119 l55 58 42 -64 c49 -74 133 -136 221 -162 81 -25 240 -24
308 1 124 46 253 165 310 285 41 89 42 211 0 211 -6 0 -55 -44 -107 -98 -115
-120 -175 -153 -284 -160 -84 -5 -120 9 -160 60 -32 44 -46 98 -46 187 l0 74
57 71 c32 39 119 139 194 221 233 256 314 369 344 479 54 200 -54 318 -264
286z m37 -258 c5 -62 -20 -106 -149 -267 -62 -77 -128 -164 -147 -193 -19 -29
-37 -51 -38 -49 -7 6 45 203 70 266 70 176 168 296 236 289 22 -3 25 -8 28
-46z"/>
</g>
</svg>
